<?xml version="1.0" encoding="iso-8859-1"?>
<!-- Generator: Adobe Illustrator 19.0.0, SVG Export Plug-In . SVG Version: 6.00 Build 0)  -->
<svg version="1.1" id="Capa_1" xmlns="http://www.w3.org/2000/svg" xmlns:xlink="http://www.w3.org/1999/xlink" x="0px" y="0px"
	 viewBox="0 0 469.333 469.333" style="enable-background:new 0 0 469.333 469.333;" xml:space="preserve">
<path style="fill:#303C42;" d="M469.333,181.26c-0.021-3.333-1.604-6.458-4.271-8.458l-38.396-28.797v-26.672
	c0-2.833-1.125-5.542-3.125-7.542L316.875,3.125c-2-2-4.708-3.125-7.542-3.125h-224C61.813,0,42.667,19.135,42.667,42.667v101.339
	L4.271,172.802c-2.667,2-4.25,5.125-4.271,8.458c0,0.026,0.017,0.047,0.017,0.073H0v245.333c0,23.531,19.146,42.667,42.667,42.667
	h384c23.521,0,42.667-19.135,42.667-42.667V181.333h-0.017C469.316,181.307,469.333,181.286,469.333,181.26z"/>
<path style="fill:#E6E6E6;" d="M441.083,181.469c-3.905,3.031-8.874,6.893-14.417,11.208v-22.018L441.083,181.469z"/>
<path style="opacity:0.15;enable-background:new    ;" d="M441.083,181.469c-3.905,3.031-8.874,6.893-14.417,11.208v-22.018
	L441.083,181.469z"/>
<path style="fill:#CCCCCC;" d="M320,36.417l70.25,70.25h-48.917c-11.771,0-21.333-9.573-21.333-21.333V36.417z"/>
<path style="fill:#FFFFFF;" d="M85.333,21.333h213.333v64c0,23.531,19.146,42.667,42.667,42.667h64v81.323
	c-14.94,11.681-32.137,25.18-49.859,39.198c-5.341-8.363-12.677-15.422-21.641-19.979c-23.208-11.802-59.271-25.875-99.167-25.875
	s-75.958,14.073-99.167,25.875c-8.997,4.576-16.355,11.664-21.707,20.061C96.095,234.577,78.921,221.068,64,209.38V42.667
	C64,30.906,73.563,21.333,85.333,21.333z"/>
<path style="fill:#E6E6E6;" d="M42.667,170.664v22.042c-5.544-4.324-10.51-8.19-14.417-11.227L42.667,170.664z"/>
<path style="opacity:0.1;enable-background:new    ;" d="M42.667,170.664v22.042c-5.544-4.324-10.51-8.19-14.417-11.227
	L42.667,170.664z"/>
<path style="fill:#FAFAFA;" d="M426.667,448h-384c-11.771,0-21.333-9.573-21.333-21.333V203.117
	c44.484,34.622,147.363,115.349,184.333,148.081c8.479,7.5,18.375,11.469,28.667,11.469c10.354,0,20.646-4.073,29-11.469
	C301.754,317.191,406.669,235.228,448,203.109v223.557C448,438.427,438.438,448,426.667,448z"/>
<circle style="fill:#303C42;" cx="234.667" cy="128" r="64"/>
<circle style="fill:#0288D1;" cx="234.667" cy="128" r="42.667"/>
<linearGradient id="SVGID_1_" gradientUnits="userSpaceOnUse" x1="-61.0382" y1="619.5732" x2="-45.5894" y2="604.1283" gradientTransform="matrix(21.3333 0 0 -21.3333 1430.1112 13315.2227)">
	<stop  offset="0" style="stop-color:#000000;stop-opacity:0.1"/>
	<stop  offset="1" style="stop-color:#000000;stop-opacity:0"/>
</linearGradient>
<path style="fill:url(#SVGID_1_);" d="M426.671,449.202c11.76,0,21.333-9.573,21.333-21.333V204.307
	C406.671,236.432,301.698,318.44,263.348,352.4c-8.354,7.396-18.656,11.469-29.01,11.469c-10.281,0-20.198-3.969-28.677-11.469
	C168.758,319.71,65.827,238.944,21.337,204.314l244.888,244.888H426.671z"/>
<linearGradient id="SVGID_2_" gradientUnits="userSpaceOnUse" x1="-51.459" y1="619.606" x2="-47.0858" y2="615.2338" gradientTransform="matrix(21.3333 0 0 -21.3333 1430.1112 13315.2227)">
	<stop  offset="0" style="stop-color:#000000;stop-opacity:0.1"/>
	<stop  offset="1" style="stop-color:#000000;stop-opacity:0"/>
</linearGradient>
<path style="fill:url(#SVGID_2_);" d="M311.952,117.333l93.272,93.272c0.035-0.027,0.074-0.059,0.109-0.086v-81.318h-64
	C329.928,129.202,319.613,124.645,311.952,117.333z"/>
<path style="fill:#0288D1;" d="M324.167,247.563c-21.146-10.75-53.813-23.563-89.5-23.563s-68.354,12.813-89.5,23.563
	c-6.35,3.229-11.424,8.172-14.746,14.253c20.872,16.629,41.438,33.199,58.794,47.518h90.602
	c17.395-14.328,38.048-30.939,59.017-47.613C335.525,255.68,330.488,250.77,324.167,247.563z"/>
<path style="fill:#FFFFFF;" d="M214.561,330.667c1.794,1.555,3.643,3.147,5.23,4.552c10.875,9.625,24.938,3.948,29.417,0
	c1.583-1.402,3.434-2.996,5.23-4.552H214.561z"/>
<linearGradient id="SVGID_3_" gradientUnits="userSpaceOnUse" x1="-67.567" y1="617.1695" x2="-43.9056" y2="606.1318" gradientTransform="matrix(21.3333 0 0 -21.3333 1430.1112 13315.2227)">
	<stop  offset="0" style="stop-color:#FFFFFF;stop-opacity:0.2"/>
	<stop  offset="1" style="stop-color:#FFFFFF;stop-opacity:0"/>
</linearGradient>
<path style="fill:url(#SVGID_3_);" d="M469.333,181.26c-0.021-3.333-1.604-6.458-4.271-8.458l-38.396-28.797v-26.672
	c0-2.833-1.125-5.542-3.125-7.542L316.875,3.125c-2-2-4.708-3.125-7.542-3.125h-224C61.813,0,42.667,19.135,42.667,42.667v101.339
	L4.271,172.802c-2.667,2-4.25,5.125-4.271,8.458c0,0.026,0.017,0.047,0.017,0.073H0v245.333c0,23.531,19.146,42.667,42.667,42.667
	h384c23.521,0,42.667-19.135,42.667-42.667V181.333h-0.017C469.316,181.307,469.333,181.286,469.333,181.26z"/>
<g>
</g>
<g>
</g>
<g>
</g>
<g>
</g>
<g>
</g>
<g>
</g>
<g>
</g>
<g>
</g>
<g>
</g>
<g>
</g>
<g>
</g>
<g>
</g>
<g>
</g>
<g>
</g>
<g>
</g>
</svg>
