<?xml version="1.0" encoding="iso-8859-1"?>
<!-- Generator: Adobe Illustrator 19.0.0, SVG Export Plug-In . SVG Version: 6.00 Build 0)  -->
<svg version="1.1" id="Capa_1" xmlns="http://www.w3.org/2000/svg" xmlns:xlink="http://www.w3.org/1999/xlink" x="0px" y="0px"
	 viewBox="0 0 512 512" style="enable-background:new 0 0 512 512;" xml:space="preserve">
<circle style="fill:#696E73;" cx="256" cy="256" r="256"/>
<path style="fill:#50555A;" d="M510.908,232.417L400.616,122.125c-8.598-12.3-24.536-18.073-39.517-13.125l-13.264,4.38
	l-42.742-42.742c-9.012-9.384-22.934-13.326-36.113-8.974c-18.29,6.04-28.222,25.763-22.182,44.055l12.214,36.99l0,0l-50.128,16.552
	l-41.291-41.291c-8.866-10.908-23.855-15.793-37.996-11.124c-18.29,6.04-28.222,25.763-22.182,44.055l12.465,37.75l-36.033,11.898
	c-18.291,6.04-28.223,25.763-22.183,44.055c1.526,4.622,3.929,8.708,6.958,12.139l0,0c0.931,1.055,1.926,2.042,2.97,2.97
	l74.565,74.565l-17.127,5.656c-18.291,6.04-28.223,25.763-22.183,44.055c1.69,5.115,4.449,9.576,7.949,13.217l-0.006,0.006
	l113.264,113.264C237.233,511.472,246.555,512,256,512c141.385,0,256-114.615,256-256C512,248.047,511.618,240.185,510.908,232.417z
	"/>
<path style="fill:#FFC305;" d="M338.347,382.971l-91.549-277.253c-6.04-18.291,3.892-38.015,22.182-44.055
	c18.292-6.039,38.015,3.892,44.055,22.183L404.584,361.1c6.04,18.291-3.892,38.015-22.183,44.055
	C364.115,411.193,344.389,401.266,338.347,382.971z"/>
<path style="fill:#7DAF93;" d="M198.963,428.154l-91.549-277.253c-6.04-18.291,3.892-38.015,22.182-44.055
	c18.29-6.039,38.015,3.892,44.055,22.183L265.2,406.283c6.04,18.291-3.892,38.015-22.182,44.055
	C224.723,456.376,205.003,446.443,198.963,428.154z"/>
<path style="fill:#E1325A;" d="M106.846,383.987c-6.04-18.291,3.892-38.015,22.183-44.055l277.254-91.549
	c18.289-6.041,38.015,3.893,44.055,22.182c6.04,18.291-3.892,38.015-22.183,44.055L150.901,406.17
	C132.605,412.21,112.885,402.277,106.846,383.987z"/>
<rect x="175.015" y="315.069" transform="matrix(0.9496 -0.3135 0.3135 0.9496 -99.1262 83.4417)" style="fill:#1B444F;" width="69.756" height="69.756"/>
<rect x="314.141" y="269.126" transform="matrix(0.9496 -0.3135 0.3135 0.9496 -77.7098 124.7412)" style="fill:#E64B55;" width="69.756" height="69.756"/>
<path style="fill:#91CDFF;" d="M61.664,244.603c-6.04-18.291,3.892-38.015,22.183-44.055L361.101,109
	c18.29-6.04,38.015,3.892,44.055,22.182c6.04,18.291-3.892,38.015-22.183,44.055l-277.254,91.55
	C87.423,272.826,67.702,262.893,61.664,244.603z"/>
<rect x="129.059" y="175.933" transform="matrix(0.9496 -0.3135 0.3135 0.9496 -57.8244 62.0207)" style="fill:#51946F;" width="69.756" height="69.756"/>
<rect x="268.188" y="130" transform="matrix(0.9496 -0.3135 0.3135 0.9496 -36.4108 103.3217)" style="fill:#82962D;" width="69.756" height="69.756"/>
<g>
</g>
<g>
</g>
<g>
</g>
<g>
</g>
<g>
</g>
<g>
</g>
<g>
</g>
<g>
</g>
<g>
</g>
<g>
</g>
<g>
</g>
<g>
</g>
<g>
</g>
<g>
</g>
<g>
</g>
</svg>
