<?xml version="1.0" encoding="utf-8"?>
<!-- Generator: Adobe Illustrator 16.0.0, SVG Export Plug-In . SVG Version: 6.00 Build 0)  -->
<!DOCTYPE svg PUBLIC "-//W3C//DTD SVG 1.1//EN" "http://www.w3.org/Graphics/SVG/1.1/DTD/svg11.dtd">
<svg version="1.1" id="Layer_1" xmlns="http://www.w3.org/2000/svg" xmlns:xlink="http://www.w3.org/1999/xlink" x="0px" y="0px"
	 width="720px" height="503.999px" viewBox="0 0 720 503.999" enable-background="new 0 0 720 503.999" xml:space="preserve">
<symbol  id="New_Symbol" viewBox="-0.763 -0.763 1.526 1.525">
	<path fill="#FFFFFF" d="M0.763,0c0-0.421-0.342-0.762-0.763-0.762S-0.763-0.421-0.763,0S-0.421,0.763,0,0.763S0.763,0.42,0.763,0z"
		/>
</symbol>
<linearGradient id="SVGID_1_" gradientUnits="userSpaceOnUse" x1="360.0005" y1="503.999" x2="360.0005" y2="-0.2495">
	<stop  offset="0.0831" style="stop-color:#EFF3D3"/>
	<stop  offset="0.3623" style="stop-color:#C4DBD3"/>
	<stop  offset="0.7039" style="stop-color:#93BBCA"/>
	<stop  offset="0.9855" style="stop-color:#5C97D2"/>
</linearGradient>
<rect y="-0.25" fill="url(#SVGID_1_)" width="720" height="504.249"/>
<path opacity="0.7" fill="#E1ECF6" d="M533.363-0.25c0,0-45.564,37.711-106.9,46.964s-114.786,3.291-153.34,30.547
	c-38.554,27.256-32.42,29.812-32.42,29.812s35.049-43.44,102.519-33.219c67.469,10.221,71.851,11.073,71.851,11.073
	s-30.149-9.369-28.219,5.111c1.932,14.48,32.6,17.035,58.01,17.035c25.411,0-5.318,0.479,12.268,14.48
	c6.495,5.17,21.029,7.666,34.173,7.666s30.668-6.247,27.163,0.284c-3.505,6.531-23.658,15.9,14.896,19.307
	c38.554,3.407,96.385-8.518,126.177-19.591c29.792-11.073,15.772-7.666-30.668-20.442C582.432,96,680.569,81.521,680.569,81.521
	s-33.297-6.814-57.831,1.703c-24.534,8.518,53.45-36.509,97.262-40.885V-0.25H533.363z"/>
<path opacity="0.5" fill="#E1ECF6" d="M0,42.36c0,0,42.333-7.36,75.319,41c12.492,18.315,10.944,20.5,21.888,27.5
	c10.943,7-16.094-5.5-16.738-7c-0.644-1.5,0.502,14.685,33.475,32.5c28.687,15.5,49.512,19.576,49.512,19.576
	s-21.509,23.924-78.803-6.076c-57.294-30-51.275-18.877-64.038-15.171C5.119,139.189,0,133.36,0,133.36V42.36z"/>
<g opacity="0.7">
	<path fill="#E1ECF6" d="M108.542,0c1.973,0,33.46,21.667,58.458,25.667S179.667,43,201.955,56.653
		C215.833,65.156,134.55,44.2,113.5,29.7C92.449,15.2,77,25,138.145,50.5c5.841,2.436-16.212,0.322-45.645-8.99
		S26.663,14.25,11.635,0H108.542z"/>
	<path fill="#E1ECF6" d="M0,14.5c0,0,54.775,41.289,105.02,54.289c50.245,13,88.026,14.23,91.973,14.23
		c3.947,0-25.106-7.673-27.08-12.173S99.333,63.678,56.574,35c-42.759-28.678,15.093-4,15.093-4l-44-31H0V14.5z"/>
</g>
<path opacity="0.7" fill="#9FCDDD" d="M0,362.778c0,0,12.846-1.478,15.833-2.954c2.987-1.479,19.716,0,19.716,0
	s0.333-5.256,7.451-8.536c7.117-3.281,19.435-0.147,19.435-0.147s3.584-1.293,7.767,0c4.182,1.294,11.352,2.4,17.625,0
	c6.273-2.398,13.443-4.614,18.82-3.876c5.377,0.739,15.534,2.669,19.119-0.144c3.585-2.811,11.65,15.656,18.969,18.611
	c7.319,2.955,8.514,5.17,10.904,0c2.39-5.171,16.131,5.91,23.897,13.297c7.767,7.388,10.952-3.543,10.952-3.543
	s4.251,2.047,8.764,5.973c6.967,6.061,34.054-10.554,43.614-7.6s4.78-8.126,13.144-4.433c8.364,3.693,9.559,10.748,20.313,13.5
	c10.754,2.751,31.067-6.852,35.847-5.374c4.779,1.477,8.962-2.955,15.534-2.216c6.572,0.738,21.507,16.99,30.769,19.945
	s9.858-8.126,17.625-2.955c7.767,5.171,10.156,12.558,19.716,13.297s29.275,2.954,41.821,0
	c12.547-2.954,21.509-10.343,29.873-11.081c8.363-0.738,38.236,12.574,38.236,12.574s23.924,10.849,44.212,0
	c8.721-4.663,7.767-13.312,25.093-11.835c17.325,1.478,60.94,19.207,68.707,17.73c7.767-1.479,20.312-11.082,31.963-8.865
	c11.65,2.216,40.996,12.25,44.282,6.34v78.614H0V362.778z"/>
<path opacity="0.6" fill="#E1ECF6" d="M0.463,267.114c0,0,37.254,34.989,42.704,40.88s6.629,16.453,6.629,16.453
	s54.719,30.662,84.667,28c30-2.667,18.117,8.362,32.666,10.334c39.01,5.287,41.917-4.291,43.334-1.624
	c5.999,11.29-39.334,14.623-96.667,11.29s-106.666-11.333-113.333-18V267.114z"/>
<path opacity="0.7" fill="#71A1AD" d="M0,385.396c0,0,31.488,5.528,51.281,4.863c19.792-0.665,47.681,0.22,67.473,7.09
	c19.792,6.87,60.276,22.158,80.07,23.488c19.792,1.329,26.989-2.659,54.878,7.312c27.89,9.972,45.883,3.324,53.98,0
	c8.097-3.323,22.491-4.652,44.082,0c21.592,4.653,19.792-3.323,31.488-1.329s14.395,9.307,30.589,9.307
	c11.66,0,57.359-20.977,94.33-9.127c39,12.5,60.741-20.488,91.33-16.5c30.587,3.988,47.925,16.748,71.035,19.506
	c33.465,3.994,48.893-3.539,49.383-5.18c0.464-1.552,0.278,49.788,0.278,49.788H0V385.396z"/>
<polyline fill="#608993" points="238.667,426.848 232.687,442.102 232.687,451.667 272.674,448.115 359.167,459.842 
	357.167,450.833 355.667,456.195 352.667,445.834 350.5,452.333 346.934,442.102 344.667,455.334 341.667,442.102 339.713,450.133 
	336.333,440.834 332.667,453.75 330.5,446.667 328.667,449.667 325.833,442.102 324.36,448.946 321.667,443.454 318.833,451.834 
	316,445.501 315.325,447.924 313,442.102 310.667,449.667 308.333,442.967 306.333,447.211 304.333,437.591 301.01,447.211 
	299.667,439.333 298,444.236 296.333,437.591 294.667,444.236 291.333,437.454 289.667,445.667 287,433.979 283.667,442.102 
	281,433.408 277.333,440.333 273,432.667 269.609,442.967 258.184,433.979 254.667,440 251.333,436.595 250,439.333 
	246.333,433.979 243.735,439 239.667,428.676 "/>
<polyline fill="#608993" points="633.935,438.737 639.915,453.991 639.915,463.557 599.928,460.005 512.019,472.291 
	514.665,463.365 516.936,468.085 519.936,457.724 522.102,464.223 525.668,453.991 527.936,467.224 530.936,453.991 
	532.889,462.022 536.268,452.724 539.936,465.64 542.102,458.557 543.935,461.557 546.768,453.991 548.242,460.836 550.936,455.344 
	553.768,463.724 556.602,457.391 557.277,459.813 559.602,453.991 561.935,461.557 564.268,454.856 566.268,459.101 568.268,449.48 
	571.592,459.101 572.935,451.223 574.602,456.126 576.268,449.48 577.935,456.126 581.268,449.344 582.935,457.557 585.602,445.868 
	588.935,453.991 591.602,445.298 595.268,452.223 599.602,444.557 602.992,454.856 614.418,445.868 617.935,451.89 621.268,448.484 
	622.602,451.223 626.268,445.868 628.867,450.89 632.935,440.565 "/>
<path fill="#A6A061" d="M0,456.83v37.872l720-4.141v-53.967c0,0-94,7.354-126,20.235c-32,12.88-122,16.559-144,14.105
	c-22-2.452-118-22.079-169-23.306s-170,19.626-191,17.173S0,456.83,0,456.83z"/>
<g>
	<rect x="16.171" y="-0.789" fill="#3C3E62" width="10.62" height="492.866"/>
	<rect x="21.481" y="-0.789" fill="#5C5F7A" width="5.31" height="492.866"/>
	<polygon fill="#3C3E62" points="21.239,403.088 23.051,414.823 23.051,492.077 21.239,492.077 	"/>
</g>
<path fill="#608993" d="M0,458.814c0.333-0.758,0.117-55.858,0.117-55.858l6.328,18.317l5.889-18.317L17,423.429l5-20.473
	l6.293,57.698l7.04-46.829l8,48.78L53,410.792l7.878,50.665l9.455-28.423c0,0,0.461,30.635,1.128,29.876
	c0.667-0.758,4.871-38.976,5.205-38.217c0.334,0.758,5.877,38.217,5.877,38.217s4.123-23.811,4.79-23.052
	C88,440.616,95.096,465,95.096,465L0,458.814z"/>
<path fill="#608993" d="M155.438,459.273c0.262-0.539,0.456-30.328,0.456-30.328l4.628-13.037l6.139,27.546l2.637-17.771
	l6.15,30.513l3.152-32.552l9.615,32.552L155.438,459.273z"/>
<path fill="#608993" d="M639.915,450.358c0.262-0.336,0.456-18.893,0.456-18.893l4.629-8.121l6.139,17.159l2.637-11.07l6.15,19.008
	l3.152-20.278l9.615,20.278L639.915,450.358z"/>
<g>
	<rect x="258.184" y="-0.789" fill="#3C3E62" width="15.234" height="481.732"/>
	<polygon fill="#5C5F7A" points="275.186,480.943 265.801,480.943 265.801,-0.789 273.418,-0.789 273.418,414.333 275.186,422.14 	
		"/>
	<polygon fill="#3C3E62" points="265.453,393.965 268.053,405.435 268.053,480.943 265.453,480.943 	"/>
</g>
<g>
	<g>
		<g>
			<rect x="31.26" y="457.976" fill="#423E34" width="5.488" height="27.643"/>
			<rect x="31.26" y="462.244" fill="#191C21" width="2.744" height="23.374"/>
		</g>
		<g>
			<polyline fill="#50563D" points="33.393,288.299 26.885,317.485 33.393,308.638 33.393,314.13 33.393,321.452 43.156,339.961 
				42.431,335.807 34.41,289.926 			"/>
			<path fill="#3C3E62" d="M27.495,326.13"/>
			<path fill="#131E2B" d="M65.597,482.338c-0.271-0.678-1.142-1.517-1.142-1.517l-21.231-28.179l-24.135-15.052l-4.611,2.441
				l-8.033,40.639l23.695-19.693l4.881,8.913l1.966-7.932l8.249,15.192l3.107-8.074l8.543,11.992l0.848-5.105L65.597,482.338z"/>
			<polygon fill="#131E2B" points="27.495,314.749 26.325,319.761 33.393,308.638 			"/>
			<path fill="#50563D" d="M15.291,423.332L3.393,450.975l15.696-13.384l-5.699,29.655l20.004-19.351
				c0,0,12.136,24.408,11.729,23.865c-0.406-0.542-1.898-19.118-1.898-19.118l22.373,29.695l-13.186-49.669l-25.458-17.994
				L15.291,423.332z"/>
			<path fill="#131E2B" d="M8.274,429.009l17.695-11.962l16.679,22.577l-1.932-7.831c0,0,14.44,18.407,14.136,17.797
				c-0.305-0.61-6.916-19.221-6.916-19.221s10.576,16.78,10.373,16.577c-0.204-0.204-7.018-28.718-7.018-28.718l-18.914-18.674
				l-7.425-6.388L8.274,429.009z"/>
			<path fill="#50563D" d="M11.833,413.081l13.627-34.476c0,0,6.509-2.339,7.017-2.339c0.508,0,10.17,2.3,10.17,2.3l5.476,9.255
				l6.22,22.311l-11.187-20.95l10.204,23.284l3.525,18.615l-9.763-14.887l2.747,10.514l-17.696-21.966l0.102,8.542l-5.898-15.355
				L11.833,413.081z"/>
			<polygon fill="#131E2B" points="23.811,369.322 15.087,394.268 25.46,378.605 21.087,395.487 31.563,376.979 32.579,382.404 
				34.816,379.42 36.241,386.944 38.885,378.605 49.054,388.979 46.613,383.894 51.088,387.352 44.975,368.614 39.495,358.47 
				27.292,357.046 			"/>
			<path fill="#50563D" d="M33.571,308.116l-7.093,15.573l-2.198,17.077l-0.446,3.466l4.403-5.048l-11.319,42.269L28.104,360.3
				l2.237,6.713c0,0,1.017-7.526,1.628-7.526c0.609,0,11.187,11.798,11.187,11.798v-5.531l7.525,13.322l-7.525-21.013l8.135,8.301
				l-7.429-22.193l-4.545-12.68l-0.512-3.898L33.571,308.116z"/>
			<polygon fill="#131E2B" points="33.292,322.062 23.833,344.232 23.528,347.181 30.953,334.57 29.529,339.961 30.139,345.655 
				36.139,337.215 42.647,345.452 			"/>
			<polygon fill="#131E2B" points="33.088,318.871 33.088,318.871 43.156,339.961 38.122,323.142 			"/>
		</g>
	</g>
	<polygon opacity="0.8" fill="#131E2B" points="34.41,289.926 33.393,288.299 27.493,314.754 26.325,319.761 33.181,308.973 
		26.478,323.689 24.279,340.767 23.833,344.232 23.528,347.181 28.235,339.185 28.236,339.185 16.917,381.453 24.362,367.378 
		23.811,369.322 15.087,394.268 25.46,378.605 11.833,413.081 19.311,405.29 8.274,429.009 14.725,424.648 3.393,450.975 
		14.123,441.824 6.444,480.671 30.139,460.978 31.26,463.024 31.26,485.618 34.003,485.618 34.921,485.618 34.921,469.709 
		34.921,457.976 34.921,450.97 34.921,447.464 34.921,429.164 34.921,420.307 34.921,408.152 34.921,402.065 34.921,379.969 
		34.921,376.769 34.921,362.313 34.921,357.936 34.921,338.93 34.921,326.135 34.921,324.349 34.921,322.71 34.921,320.425 
		34.921,313.138 34.921,292.846 	"/>
</g>
<g>
	<g>
		<g>
			<rect x="101.97" y="474.105" fill="#423E34" width="5.488" height="27.643"/>
			<rect x="101.97" y="478.374" fill="#191C21" width="2.744" height="23.374"/>
		</g>
		<g>
			<polyline fill="#50563D" points="104.103,304.429 97.595,333.615 104.103,324.768 104.103,330.26 104.103,337.582 
				113.866,356.091 113.141,351.937 105.12,306.056 			"/>
			<path fill="#3C3E62" d="M98.205,342.26"/>
			<path fill="#131E2B" d="M136.307,498.468c-0.271-0.678-1.142-1.517-1.142-1.517l-21.231-28.179l-24.135-15.052l-4.611,2.441
				l-8.033,40.639l23.695-19.693l4.881,8.913l1.966-7.932l8.249,15.192l3.107-8.074l8.543,11.992l0.848-5.105L136.307,498.468z"/>
			<polygon fill="#131E2B" points="98.205,330.879 97.035,335.891 104.103,324.768 			"/>
			<path fill="#50563D" d="M86.001,439.462l-11.898,27.643l15.696-13.384l-5.699,29.655l20.004-19.351
				c0,0,12.136,24.408,11.729,23.865c-0.406-0.542-1.898-19.118-1.898-19.118l22.373,29.695l-13.186-49.669l-25.458-17.994
				L86.001,439.462z"/>
			<path fill="#131E2B" d="M78.984,445.139l17.695-11.962l16.679,22.577l-1.932-7.831c0,0,14.44,18.407,14.136,17.797
				c-0.305-0.61-6.916-19.221-6.916-19.221s10.576,16.78,10.373,16.577c-0.204-0.204-7.018-28.718-7.018-28.718l-18.914-18.674
				l-7.425-6.388L78.984,445.139z"/>
			<path fill="#50563D" d="M82.543,429.211l13.627-34.476c0,0,6.509-2.339,7.017-2.339c0.508,0,10.17,2.3,10.17,2.3l5.476,9.255
				l6.22,22.311l-11.187-20.95l10.204,23.284l3.525,18.615l-9.763-14.887l2.747,10.514l-17.696-21.966l0.102,8.542l-5.898-15.355
				L82.543,429.211z"/>
			<polygon fill="#131E2B" points="94.521,385.452 85.797,410.397 96.17,394.735 91.797,411.617 102.273,393.108 103.289,398.534 
				105.526,395.55 106.951,403.074 109.595,394.735 119.764,405.108 117.323,400.023 121.798,403.481 115.685,384.744 
				110.205,374.6 98.001,373.176 			"/>
			<path fill="#50563D" d="M104.281,324.246l-7.093,15.573l-2.198,17.077l-0.446,3.466l4.403-5.048l-11.319,42.269l11.187-21.153
				l2.237,6.713c0,0,1.017-7.526,1.628-7.526c0.609,0,11.187,11.798,11.187,11.798v-5.531l7.525,13.322l-7.525-21.013l8.135,8.301
				l-7.429-22.193l-4.545-12.68l-0.512-3.898L104.281,324.246z"/>
			<polygon fill="#131E2B" points="104.001,338.191 94.543,360.362 94.238,363.311 101.663,350.7 100.239,356.091 100.849,361.785 
				106.849,353.345 113.357,361.582 			"/>
			<polygon fill="#131E2B" points="103.798,335.001 103.798,335.001 113.866,356.091 108.832,339.271 			"/>
		</g>
	</g>
	<polygon opacity="0.9" fill="#131E2B" points="105.12,306.056 104.103,304.429 98.203,330.884 97.035,335.891 103.891,325.103 
		97.188,339.819 94.989,356.896 94.543,360.362 94.238,363.311 98.945,355.314 98.946,355.314 87.627,397.583 95.072,383.508 
		94.521,385.452 85.797,410.397 96.17,394.735 82.543,429.211 90.021,421.42 78.984,445.139 85.435,440.778 74.103,467.104 
		84.833,457.954 77.154,496.801 100.849,477.107 101.97,479.154 101.97,501.748 104.713,501.748 105.631,501.748 105.631,485.839 
		105.631,474.105 105.631,467.1 105.631,463.594 105.631,445.294 105.631,436.437 105.631,424.282 105.631,418.195 105.631,396.099 
		105.631,392.898 105.631,378.443 105.631,374.065 105.631,355.06 105.631,342.265 105.631,340.479 105.631,338.84 105.631,336.555 
		105.631,329.268 105.631,308.976 	"/>
</g>
<path fill="#454742" d="M111.116,478.232l-57.156,3.481L0,489.438v14.562h112.749c6.558-8.704,8.221-17.707,14.366-26.548
	C117.317,477.919,111.116,478.232,111.116,478.232z"/>
<g>
	<path fill="#363658" d="M51.09,480.158l3.973-4.943V462.56l-7.945,15.912l0.269,6.855c0.994,0.614,1.927,1.365,2.895,2.088
		L51.09,480.158z"/>
	<path fill="#23233A" d="M47.386,485.327l0.635,18.672h1.354l0.906-16.584C49.313,486.692,48.38,485.941,47.386,485.327z"/>
</g>
<path fill="#656C55" d="M508.17,489.779c0,0-233.67-15.779-261.17-16.404c-20.927-0.476-88.687,2.585-119.885,4.076
	c-6.146,8.841-9.809,17.844-16.366,26.548h496.037c-5.25-7.564-10.493-15.163-15.486-22.95L508.17,489.779z"/>
<path fill="#454742" d="M720.116,465l-102,13.232l-26.816,2.816c4.993,7.787,10.236,15.386,15.486,22.95h113.33V465z"/>
<polygon fill="#7D6884" points="156,503.999 111,503.999 111,0 156,0 156,413 "/>
<polyline fill="#363658" points="133.5,0 133.5,183.5 140.604,208.467 138.75,212 133.5,206 138.75,503.999 111,503.999 111,0 "/>
<path opacity="0.6" fill="#E1ECF6" d="M720,277.048c0,0-37.254,34.989-42.704,40.88s-6.629,16.453-6.629,16.453
	s-54.719,30.662-84.667,28c-30-2.667-18.117,8.362-32.666,10.334c-39.01,5.287-41.917-4.291-43.334-1.624
	c-5.999,11.29,39.334,14.623,96.667,11.29s106.666-11.333,113.333-18V277.048z"/>
<g>
	<rect x="53.844" fill="#3C3E62" width="20.312" height="503.999"/>
	<rect x="64" fill="#5C5F7A" width="10.156" height="503.999"/>
	<polygon fill="#3C3E62" points="63.536,413 67.003,425 67.003,503.999 63.536,503.999 	"/>
</g>
<polygon fill="#3C3E62" points="456.446,196.056 456.464,196.111 435.961,197.593 455.086,198.718 457.586,199.593 459.041,197.729 
	475.83,188.502 "/>
<polygon opacity="0.7" fill="#3C3E62" points="203.045,73.666 203.029,73.722 185.054,63.75 200.45,75.151 202.064,77.251 
	204.302,76.486 223.403,77.944 "/>
<polygon opacity="0.7" fill="#3C3E62" points="180.824,222.573 180.813,222.611 168.647,215.861 179.067,223.578 180.16,225 
	181.675,224.482 194.604,225.468 "/>
<polygon opacity="0.7" fill="#3C3E62" points="697.293,217.77 697.303,217.808 709.469,211.058 699.049,218.775 697.956,220.196 
	696.441,219.679 683.513,220.665 "/>
<path opacity="0.5" fill="#E1ECF6" d="M720,96.12c0,0-37.254,34.989-42.704,40.88s-6.629,16.453-6.629,16.453
	s-54.719,30.662-84.667,28c-30-2.667-18.117,8.362-32.666,10.334c-39.01,5.287-41.917-4.291-43.334-1.624
	c-5.999,11.29,39.334,14.623,96.667,11.29s106.666-11.333,113.333-18V96.12z"/>
<g>
	<rect x="657.557" fill="#3C3E62" width="15.234" height="503.999"/>
	<rect x="657.557" fill="#5C5F7A" width="7.617" height="503.999"/>
	<polygon fill="#3C3E62" points="665.174,413 662.574,425 662.574,503.999 665.174,503.999 	"/>
</g>
<g>
	<g>
		<g>
			<rect x="200.896" y="458.787" fill="#423E34" width="6.75" height="34"/>
			<rect x="200.896" y="464.037" fill="#191C21" width="3.375" height="28.75"/>
		</g>
		<g>
			<polyline fill="#50563D" points="203.52,250.085 195.515,285.984 203.52,275.103 203.52,281.857 203.52,290.863 215.528,313.629 
				214.636,308.52 204.771,252.086 			"/>
			<path fill="#3C3E62" d="M196.265,296.617"/>
			<path fill="#131E2B" d="M243.131,488.752c-0.333-0.834-1.405-1.865-1.405-1.865l-26.114-34.66l-29.687-18.514l-5.671,3.003
				l-9.882,49.985l29.145-24.223l6.004,10.964l2.418-9.757l10.146,18.687l3.822-9.931l10.507,14.75l1.043-6.279L243.131,488.752z"/>
			<polygon fill="#131E2B" points="196.265,282.619 194.827,288.783 203.52,275.103 			"/>
			<path fill="#50563D" d="M181.254,416.175l-14.635,34.001l19.305-16.463l-7.009,36.477l24.604-23.802
				c0,0,14.927,30.022,14.427,29.354c-0.5-0.667-2.335-23.516-2.335-23.516l27.519,36.525l-16.22-61.092l-31.313-22.134
				L181.254,416.175z"/>
			<path fill="#131E2B" d="M172.624,423.157l21.765-14.713l20.514,27.77l-2.376-9.632c0,0,17.762,22.641,17.387,21.891
				c-0.375-0.751-8.506-23.642-8.506-23.642s13.009,20.64,12.759,20.39c-0.25-0.251-8.631-35.322-8.631-35.322l-23.264-22.969
				l-9.133-7.857L172.624,423.157z"/>
			<path fill="#50563D" d="M177.001,403.566l16.762-42.404c0,0,8.006-2.877,8.631-2.877c0.625,0,12.509,2.829,12.509,2.829
				l6.735,11.383l7.65,27.441l-13.76-25.768l12.551,28.639l4.336,22.897l-12.008-18.311l3.377,12.932l-21.765-27.019l0.125,10.507
				l-7.255-18.888L177.001,403.566z"/>
			<polygon fill="#131E2B" points="191.734,349.743 181.004,380.426 193.763,361.162 188.384,381.927 201.269,359.16 
				202.52,365.835 205.271,362.163 207.022,371.419 210.275,361.162 222.783,373.921 219.781,367.666 225.285,371.92 
				217.766,348.873 211.025,336.395 196.015,334.644 			"/>
			<path fill="#50563D" d="M203.739,274.46l-8.725,19.155l-2.704,21.005l-0.549,4.263l5.415-6.208l-13.921,51.989l13.76-26.018
				l2.752,8.256c0,0,1.25-9.257,2.001-9.257c0.75,0,13.759,14.511,13.759,14.511v-6.803l9.256,16.386l-9.256-25.845l10.007,10.209
				l-9.138-27.297l-5.59-15.596l-0.63-4.796L203.739,274.46z"/>
			<polygon fill="#131E2B" points="203.395,291.613 191.762,318.883 191.387,322.51 200.518,306.999 198.767,313.629 
				199.517,320.634 206.897,310.252 214.903,320.384 			"/>
			<polygon fill="#131E2B" points="203.145,287.688 203.145,287.688 215.528,313.629 209.336,292.941 			"/>
		</g>
	</g>
	<polygon opacity="0.7" fill="#131E2B" points="204.771,252.086 203.52,250.085 196.264,282.625 194.827,288.783 203.259,275.514 
		195.014,293.615 192.311,314.62 191.762,318.883 191.387,322.51 197.176,312.675 197.177,312.675 183.256,364.664 192.412,347.352 
		191.734,349.743 181.004,380.426 193.763,361.162 177.001,403.566 186.199,393.983 172.624,423.157 180.558,417.794 
		166.62,450.176 179.818,438.921 170.372,486.701 199.517,462.479 200.896,464.996 200.896,492.787 204.271,492.787 
		205.399,492.787 205.399,473.219 205.399,458.787 205.399,450.17 205.399,445.857 205.399,423.349 205.399,412.454 
		205.399,397.505 205.399,390.018 205.399,362.839 205.399,358.902 205.399,341.123 205.399,335.738 205.399,312.36 
		205.399,296.623 205.399,294.426 205.399,292.41 205.399,289.601 205.399,280.637 205.399,255.678 	"/>
</g>
<g>
	<g>
		<g>
			<polyline fill="#50563D" points="616.027,265.973 626.011,310.747 616.027,297.176 616.027,305.601 616.027,316.832 
				601.05,345.226 602.163,338.854 614.467,268.469 			"/>
			<path fill="#3C3E62" d="M625.076,324.009"/>
			<polygon fill="#131E2B" points="637.972,494.996 645.046,498.741 646.085,503.999 623.536,503.999 			"/>
			<polygon fill="#131E2B" points="625.076,306.55 626.87,314.238 616.027,297.176 			"/>
			<polygon fill="#50563D" points="586.854,487.447 625.907,459.842 643.798,473.122 657.087,503.999 648.529,503.999 
				637.972,494.996 639.702,503.999 582.459,503.999 			"/>
			<path fill="#131E2B" d="M581.102,503.999h-1.896c2.92-11.735,9.364-38.704,9.364-38.704l29.015-28.647l11.391-9.8l25.586,54.983
				l-27.145-18.351l-25.586,34.635l2.963-12.013c0,0-7.842,9.996-14.096,17.896h-4.147c3.102-8.635,7.167-20.08,7.167-20.08
				S585.764,496.54,581.102,503.999z"/>
			<path fill="#50563D" d="M649.102,457.397l-20.905-52.888c0,0-9.985-3.588-10.765-3.588s-15.601,3.528-15.601,3.528l-8.4,14.197
				l-9.542,34.225l17.161-32.138l-15.653,35.719l-5.408,28.558l14.978-22.837l-4.213,16.129l27.146-33.698l-0.156,13.104
				l9.049-23.557L649.102,457.397z"/>
			<polygon fill="#131E2B" points="630.728,390.269 644.109,428.536 628.196,404.51 634.905,430.408 618.835,402.013 
				617.276,410.338 613.844,405.759 611.658,417.303 607.603,404.51 592.003,420.423 595.747,412.622 588.882,417.928 
				598.26,389.183 606.667,373.619 625.388,371.436 			"/>
			<path fill="#50563D" d="M615.755,296.374l10.881,23.891l3.373,26.197l0.685,5.316l-6.755-7.742l17.363,64.842l-17.161-32.45
				l-3.433,10.297c0,0-1.561-11.545-2.497-11.545c-0.935,0-17.161,18.098-17.161,18.098v-8.484l-11.544,20.437l11.544-32.233
				l-12.479,12.732l11.396-34.045l6.972-19.451l0.786-5.981L615.755,296.374z"/>
			<polygon fill="#131E2B" points="616.184,317.768 630.693,351.778 631.161,356.303 619.771,336.957 621.955,345.226 
				621.02,353.963 611.814,341.015 601.831,353.65 			"/>
			<polygon fill="#131E2B" points="616.495,312.873 616.495,312.873 601.05,345.226 608.773,319.424 			"/>
		</g>
	</g>
	<polygon opacity="0.7" fill="#131E2B" points="613.684,482.069 613.684,468.482 613.684,449.837 613.684,440.499 613.684,406.602 
		613.684,401.691 613.684,379.517 613.684,372.801 613.684,343.644 613.684,324.016 613.684,321.275 613.684,318.762 
		613.684,315.258 613.684,304.078 613.684,272.949 614.467,268.469 616.027,265.973 625.078,306.558 626.87,314.238 
		616.353,297.688 626.636,320.265 630.009,346.462 630.693,351.778 631.161,356.303 623.939,344.036 623.938,344.036 
		641.302,408.878 629.882,387.285 630.728,390.269 644.109,428.536 628.196,404.51 649.102,457.397 637.631,445.445 
		654.562,481.831 644.666,475.142 657.087,503.999 648.528,503.999 645.589,501.492 646.085,503.999 613.684,503.999 	"/>
</g>
<g>
	<path fill="#5C5F7A" d="M77.863,480.421l-7.521-14.687v11.759l4.21,5.27l0.847,15.777c0.635,0.009,1.206,0.068,1.73,0.178
		L77.863,480.421z"/>
	<path fill="#4E5268" d="M75.356,497.979l0.269,6.02h1.529l-0.007-5.715C76.622,498.157,75.991,497.989,75.356,497.979z"/>
</g>
<polygon fill="#CCC381" points="394.031,461.954 403.585,463.365 423.13,471.954 373,480.943 351.583,479.469 410.854,470.954 "/>
<polygon opacity="0.5" fill="#CCC381" points="295.927,476.002 239.049,504 471.959,503.999 432.87,484.759 336.577,478.514 "/>
<g>
	<g>
		<rect x="700.886" y="490.363" fill="#423E34" width="8.418" height="13.601"/>
		<rect x="700.886" y="496.911" fill="#191C21" width="4.209" height="7.053"/>
	</g>
	<g>
		<polygon fill="#50563D" points="705.719,232.562 704.158,230.067 694.175,274.841 704.158,261.27 704.158,269.694 
			704.158,280.926 719.136,309.319 718.022,302.947 		"/>
		<path fill="#3C3E62" d="M695.109,288.103"/>
		<polygon fill="#131E2B" points="719.239,482.181 682.214,459.09 675.14,462.835 667.01,503.964 688.341,503.964 699.166,494.967 
			704.093,503.964 707.813,503.964 709.671,496.473 713.738,503.964 720.001,503.964 720.001,483.191 		"/>
		<polygon fill="#131E2B" points="695.109,270.644 693.315,278.332 704.158,261.27 		"/>
		<path fill="#50563D" d="M720.001,483.191v-41.073l-25.723-18.183l-17.891,13.28l-18.252,42.407l24.078-20.533l-8.624,44.874h0.522
			l30.046-29.065c0,0,9.123,18.349,14.379,29.065h1.464v-12.67c-0.438-5.077-0.762-9.113-0.762-9.113L720.001,483.191z"/>
		<path fill="#131E2B" d="M702.601,400.741l-11.391-9.8l-25.586,54.983l27.145-18.351l25.586,34.635l-2.963-12.013
			c0,0,1.919,2.446,4.609,5.867v-38.142L702.601,400.741z"/>
		<path fill="#50563D" d="M719.136,384.828l0.865,1.62v-15.122l-1.646-2.782c0,0-14.821-3.528-15.601-3.528
			s-10.765,3.588-10.765,3.588l-20.905,52.888l22.31-23.245l9.049,23.557l-0.156-13.104l17.715,21.99v-43.886L719.136,384.828z"/>
		<polygon fill="#131E2B" points="713.519,337.713 694.798,335.529 689.458,354.362 676.076,392.63 691.989,368.604 685.28,394.502 
			701.351,366.106 702.909,374.432 706.342,369.853 708.527,381.396 712.583,368.604 720.001,376.171 720.001,349.713 		"/>
		<path fill="#50563D" d="M719.136,337.09l0.865,0.883V315.17l-6.754-18.844l-0.786-5.981l-8.03-29.877l-10.881,23.891
			l-3.373,26.197l-0.685,5.316l6.755-7.742l-17.363,64.842l17.161-32.45l3.433,10.297c0,0,1.561-11.545,2.497-11.545
			c0.935,0,17.161,18.098,17.161,18.098v-8.484l0.865,1.531v-10.912L719.136,337.09z"/>
		<polygon fill="#131E2B" points="704.002,281.861 689.492,315.872 689.024,320.396 700.414,301.051 698.23,309.319 
			699.166,318.057 708.371,305.108 718.354,317.744 		"/>
		<polygon fill="#131E2B" points="703.69,276.967 719.136,309.319 711.412,283.518 		"/>
	</g>
</g>
<polygon opacity="0.4" fill="#131E2B" points="258.184,458.971 275.186,462.037 275.186,475.512 258.184,474.039 "/>
<polygon opacity="0.5" fill="#131E2B" points="16.128,456.272 26.75,462.175 26.792,485.579 16.171,487.091 "/>
<polygon opacity="0.3" fill="#131E2B" points="53.844,474.025 74.156,482.338 74.156,503.999 53.926,504.071 "/>
<polygon opacity="0.3" fill="#131E2B" points="672.734,466.39 657.638,473.602 657.557,503.953 672.674,504.044 "/>
<polygon opacity="0.3" fill="#131E2B" points="110.909,484.475 156,492.787 156,504.061 111.091,504.107 "/>
<polygon opacity="0.6" fill="#131E2B" points="720.001,315.25 715.293,302.114 719.136,309.399 718.022,303.027 705.719,232.643 
	704.158,230.146 695.111,270.722 695.109,270.724 693.315,278.412 703.831,261.864 693.55,284.438 690.177,310.636 689.492,315.952 
	689.024,320.477 696.244,308.213 696.247,308.21 678.884,373.052 690.305,351.455 689.458,354.442 676.076,392.71 691.989,368.684 
	671.084,421.571 682.557,409.618 665.624,446.005 675.519,439.316 658.136,479.703 674.596,465.666 667.01,504.044 673.59,504.044 
	674.112,504.044 688.341,504.044 699.166,495.047 700.886,498.188 700.886,504.044 704.093,504.044 705.095,504.044 
	707.813,504.044 709.304,504.044 709.304,498.033 709.671,496.553 713.738,504.044 718.537,504.044 720.001,504.044 
	720.001,491.374 720.001,483.271 720.001,456.144 720.001,442.198 720.001,430.769 720.001,418.002 720.001,386.883 
	719.136,384.908 720.001,386.528 720.001,376.251 720.001,371.406 720.001,350.498 720.001,349.793 720.001,339.586 719.136,337.17 
	720.001,338.053 "/>
<polygon fill="#363658" points="133.5,58.619 138.5,83.02 133.5,77.944 "/>
<polygon fill="#3C3E62" points="264.185,51.55 269.185,75.95 264.185,70.875 "/>
<polygon fill="#3C3E62" points="64,63.75 69,88.15 64,83.075 "/>
<polygon fill="#3C3E62" points="64,208.465 69,232.865 64,227.79 "/>
<polygon fill="#3C3E62" points="265.553,220.665 270.553,245.065 265.553,239.989 "/>
<polygon fill="#3C3E62" points="265.553,369.253 270.553,393.653 265.553,388.578 "/>
<polygon fill="#363658" points="136,386.959 145.5,415.908 136.307,405.526 "/>
<g>
	<path fill="#7D6884" d="M166.363,458.568l-10.925-28.562v22.869l6.115,10.248l1.231,30.685c0.922,0.017,1.751,0.133,2.513,0.346
		L166.363,458.568z"/>
	<path fill="#705D77" d="M162.721,492.718l0.393,11.281l2.208,0.108V493.31C164.56,493.063,163.644,492.736,162.721,492.718z"/>
</g>
<g>
	<path fill="#363658" d="M106.73,472.199l5.334-6.638v-16.994l-10.668,21.367l0.361,9.205c1.334,0.824,2.587,1.833,3.887,2.804
		L106.73,472.199z"/>
	<path fill="#23233A" d="M101.757,479.14l0.957,24.48l1.795-0.003l1.136-21.674C104.344,480.973,103.092,479.964,101.757,479.14z"/>
</g>
<polygon fill="#3C3E62" points="665.174,74.576 664.716,75.78 661.365,84.6 665.174,82.333 "/>
<polygon fill="#3C3E62" points="665.174,208.942 664.716,210.146 661.365,218.966 665.174,216.7 "/>
<polygon fill="#3C3E62" points="666.05,332.022 665.592,333.227 662.241,342.047 666.05,339.779 "/>
</svg>
